<svg width="96" height="96" viewBox="0 0 96 96" fill="none" xmlns="http://www.w3.org/2000/svg">
<path fill-rule="evenodd" clip-rule="evenodd" d="M83.7114 77.1263C85.1021 75.4232 86.3521 73.6421 87.4614 71.7987C89.9011 67.7443 91.6596 63.3884 92.7343 58.8975C93.8213 54.3555 94.2088 49.6755 93.8943 45.0296C93.6198 40.9756 92.8108 36.9475 91.4653 33.0598C90.1305 29.2028 88.2678 25.484 85.8753 22.015C84.4497 19.9479 82.8359 17.9696 81.0338 16.1036C78.3878 13.364 75.4856 11.0219 72.402 9.07868C69.0887 6.99078 65.5659 5.36341 61.9264 4.19837C57.3685 2.73931 52.6275 2.00536 47.8859 2.00003C44.1965 1.99588 40.5068 2.43282 36.9025 3.31249C32.8447 4.30282 28.8953 5.85429 25.1766 7.96925C21.9076 9.82842 18.817 12.123 15.988 14.8547C12.4328 18.2875 9.55299 22.1572 7.35124 26.2985C5.19563 30.3531 3.68992 34.6682 2.83656 39.0887C1.95737 43.6429 1.77061 48.3091 2.27894 52.9178C2.9378 58.8911 4.76435 64.7677 7.7644 70.1785C9.68404 73.6407 12.0842 76.9123 14.9663 79.8964C19.5416 84.6338 24.8833 88.1826 30.6045 90.5354C37.5619 93.3967 45.0806 94.4893 52.4647 93.7998C58.662 93.2212 64.7645 91.3873 70.361 88.2902" fill="white"/>
<path d="M83.7114 77.1263C85.1021 75.4232 86.3521 73.6421 87.4614 71.7987C89.9011 67.7443 91.6596 63.3884 92.7343 58.8975C93.8213 54.3555 94.2088 49.6755 93.8943 45.0296C93.6198 40.9756 92.8108 36.9475 91.4653 33.0598C90.1305 29.2028 88.2678 25.484 85.8753 22.015C84.4497 19.9479 82.8359 17.9696 81.0338 16.1036C78.3878 13.364 75.4856 11.0219 72.402 9.07868C69.0887 6.99078 65.5659 5.36341 61.9264 4.19837C57.3685 2.73931 52.6275 2.00536 47.8859 2.00003C44.1965 1.99588 40.5068 2.43282 36.9025 3.31249C32.8447 4.30282 28.8953 5.85429 25.1766 7.96925C21.9076 9.82842 18.817 12.123 15.988 14.8547C12.4328 18.2875 9.55299 22.1572 7.35124 26.2985C5.19563 30.3531 3.68992 34.6682 2.83656 39.0887C1.95737 43.6429 1.77061 48.3091 2.27894 52.9178C2.9378 58.8911 4.76435 64.7677 7.7644 70.1785C9.68404 73.6407 12.0842 76.9123 14.9663 79.8964C19.5416 84.6338 24.8833 88.1826 30.6045 90.5354C37.5619 93.3967 45.0806 94.4893 52.4647 93.7998C58.662 93.2212 64.7645 91.3873 70.361 88.2902" stroke="#984063" stroke-width="2.5" stroke-linecap="round" stroke-linejoin="round"/>
<path fill-rule="evenodd" clip-rule="evenodd" d="M73.7015 86.3782C76.6075 84.5081 79.1912 82.1749 80.8722 80.2913L73.7015 86.3782Z" fill="white"/>
<path d="M73.7015 86.3782C76.6075 84.5081 79.1912 82.1749 80.8722 80.2913" stroke="#984063" stroke-width="2.5" stroke-linecap="round"/>
<path d="M90 50.617C89.714 50.6221 89.4273 50.6246 89.14 50.6246C63.8865 50.6246 43.2087 30.9362 41.4759 6C21.3752 9.1706 6 26.6526 6 47.7434C6 71.0811 24.8255 90 48.0478 90C70.3092 90 88.5301 72.6145 90 50.617Z" fill="#FFF4F9"/>
<path fill-rule="evenodd" clip-rule="evenodd" d="M32.0233 46.3729C30.8001 45.2433 28.9025 45.33 27.785 46.5666C26.6676 47.8032 26.7534 49.7214 27.9767 50.8511L42.0957 63.889C43.8083 65.4704 46.4649 65.349 48.0293 63.6178C48.0947 63.5442 48.0947 63.5442 48.1578 63.4687L68.3067 38.9716C69.366 37.6837 69.1919 35.7716 67.9179 34.7008C66.6439 33.63 64.7524 33.806 63.6931 35.0939L44.75 58.125L32.0233 46.3729Z" fill="white" stroke="#984063" stroke-width="2.5" stroke-linecap="round"/>
<path fill-rule="evenodd" clip-rule="evenodd" d="M33.8239 10.4131C31.8737 11.1447 29.9688 12.0338 28.1284 13.0806C25.2686 14.7072 22.5648 16.7149 20.0899 19.1049C19.0754 20.0846 18.1237 21.105 17.235 22.161M14.4851 25.8378C13.7785 26.9057 13.1281 28.0004 12.5342 29.1176C12.0956 29.9428 11.6877 30.7803 11.3106 31.6285" fill="white"/>
<path d="M34.263 11.5835C34.9093 11.341 35.2367 10.6204 34.9942 9.97403C34.7517 9.32766 34.0312 9.00026 33.3848 9.24275L34.263 11.5835ZM28.1284 13.0806L28.7464 14.1671L28.1284 13.0806ZM20.0899 19.1049L19.2216 18.2057L20.0899 19.1049ZM16.2786 21.3562C15.8341 21.8844 15.902 22.6729 16.4302 23.1174C16.9584 23.5619 17.7469 23.4941 18.1914 22.9659L16.2786 21.3562ZM15.5275 26.5277C15.9085 25.9519 15.7507 25.1764 15.1749 24.7954C14.5992 24.4144 13.8237 24.5723 13.4427 25.148L15.5275 26.5277ZM12.5342 29.1176L13.638 29.7044L13.638 29.7044L12.5342 29.1176ZM10.1684 31.1206C9.8879 31.7515 10.1719 32.4902 10.8027 32.7707C11.4335 33.0511 12.1723 32.7671 12.4528 32.1363L10.1684 31.1206ZM33.3848 9.24275C31.3735 9.99734 29.4086 10.9143 27.5104 11.994L28.7464 14.1671C30.5289 13.1532 32.374 12.2921 34.263 11.5835L33.3848 9.24275ZM27.5104 11.994C24.5604 13.672 21.7724 15.7424 19.2216 18.2057L20.9582 20.0041C23.3573 17.6874 25.9768 15.7425 28.7464 14.1671L27.5104 11.994ZM19.2216 18.2057C18.176 19.2154 17.195 20.2673 16.2786 21.3562L18.1914 22.9659C19.0525 21.9427 19.9747 20.9538 20.9582 20.0041L19.2216 18.2057ZM13.4427 25.148C12.7138 26.2494 12.0431 27.3785 11.4305 28.5309L13.638 29.7044C14.2132 28.6222 14.8431 27.562 15.5275 26.5277L13.4427 25.148ZM11.4305 28.5309C10.978 29.382 10.5573 30.2459 10.1684 31.1206L12.4528 32.1363C12.818 31.3148 13.2131 30.5036 13.638 29.7044L11.4305 28.5309Z" fill="#FFACCD"/>
</svg>
